<!-- <svg xmlns="http://www.w3.org/2000/svg" width="24" height="24" viewBox="0 0 24 24"><path fill="currentColor" d="M18 15h-2v2h2m0-6h-2v2h2m2 6h-8v-2h2v-2h-2v-2h2v-2h-2V9h8M10 7H8V5h2m0 6H8V9h2m0 6H8v-2h2m0 6H8v-2h2M6 7H4V5h2m0 6H4V9h2m0 6H4v-2h2m0 6H4v-2h2m6-10V3H2v18h20V7H12Z"/></svg> -->
<!-- <svg xmlns="http://www.w3.org/2000/svg" width="24" height="24" viewBox="0 0 24 24"><path fill="currentColor" d="M21 2H3c-1.1 0-2 .9-2 2v16c0 1.1.9 2 2 2h18c1.1 0 2-.9 2-2V4c0-1.1-.9-2-2-2m0 18H3V6h18v14Z"/></svg> -->
<!-- <svg xmlns="http://www.w3.org/2000/svg" width="24" height="24" viewBox="0 0 24 24"><path fill="currentColor" d="M16 20h4v-4h-4m0-2h4v-4h-4m-6-2h4V4h-4m6 4h4V4h-4m-6 10h4v-4h-4m-6 4h4v-4H4m0 10h4v-4H4m6 4h4v-4h-4M4 8h4V4H4v4Z"/></svg> -->
<svg xmlns="http://www.w3.org/2000/svg" width="24" height="24" viewBox="0 0 24 24"><path fill="currentColor" d="M21.7 18.6v-1l1.1-.8c.1-.1.2-.2.1-.3l-1-1.7c0-.1-.2-.1-.3-.1l-1.2.5c-.3-.2-.6-.4-.9-.5l-.2-1.3c0-.1-.1-.2-.2-.2h-2c-.2 0-.3.1-.3.2l-.2 1.3c-.3.2-.5.3-.8.5l-1.2-.5c-.1 0-.2 0-.3.1l-1 1.7c0 .1 0 .2.1.3l1.1.8v1l-1.1.8c-.1.1-.2.2-.1.3l1 1.7c.1.1.2.1.3.1l1.2-.5c.2.2.5.4.8.5l.2 1.3c.1.1.2.2.3.2h2c.1 0 .2-.1.2-.2l.2-1.3c.3-.2.5-.3.8-.5l1.2.4c.1 0 .2 0 .3-.1l1-1.7c.1-.1.1-.2 0-.2l-1.1-.8m-3.7.9c-.8 0-1.5-.7-1.5-1.5s.7-1.5 1.5-1.5s1.5.7 1.5 1.5s-.7 1.5-1.5 1.5M11 18c0-3.9 3.1-7 7-7c2 0 3.7.8 5 2.1V4c0-1.1-.9-2-2-2H3c-1.1 0-2 .9-2 2v16c0 1.1.9 2 2 2h9.3c-.8-1.1-1.3-2.5-1.3-4M3 4h18v3H3V4Z"/></svg>